{"title":"Melanie Rios - Housewife 1 on 1","uid":9615741,"size":247329562,"categoryP":"porn","categoryS":"movie_clips","magnet":"?xt=urn:btih:288491e3ef707763be03bba91e572719a93d389b&amp;dn=Melanie+Rios+-+Housewife+1+on+1&amp;tr=udp%3A%2F%2Ftracker.openbittorrent.com%3A80&amp;tr=udp%3A%2F%2Fopen.demonii.com%3A1337&amp;tr=udp%3A%2F%2Ftracker.coppersurfer.tk%3A6969&amp;tr=udp%3A%2F%2Fexodus.desync.com%3A6969","seeders":0,"leechers":1,"uploader":"athklym","files":-1,"time":1392416313,"description":" &lt;a href=&quot;http://bayimg.com/gAjEbaaFf&quot; rel=&quot;nofollow&quot; target=&quot;_NEW&quot;&gt;http://bayimg.com/gAjEbaaFf&lt;/a&gt;\nMelanie Rios &amp; Mark Wood in Housewife 1 on 1\n\nSynopsis: Melanie is pissed at her husband because she recently went shopping and her credit card got declined. It seems her husband charged basketball season tickets on them and left her with only 5 bucks. She needs him to fix that problem, and of course a good blowjob always helps smooth things along.\n\nMelanie_Rios_Housewife_1_on_1.avi\nFormat : MPEG-4\nFormat profile : Base Media / Version 2\nCodec ID : mp42\nFile size : 236 MiB\nDuration : 24mn 32s\nOverall bit rate : 1 344 Kbps\nEncoded date : UTC 2010-06-08 11:41:57\nTagged date : UTC 2010-06-08 11:41:57\n\nVideo\nID : 1\nFormat : AVC\nFormat/Info : Advanced Video Codec\nFormat profile : &lt;a class=&quot;__cf_email__&quot; href=&quot;/cdn-cgi/l/email-protection&quot; data-cfemail=&quot;327f535b5c727e011c02&quot;&gt;[email&amp;#160;protected]&lt;/a&gt;&lt;script cf-hash='f9e31' type=&quot;text/javascript&quot;&gt;\n/* &lt;![CDATA[ */!function(){try{var t=&quot;currentScript&quot;in document?document.currentScript:function(){for(var t=document.getElementsByTagName(&quot;script&quot;),e=t.length;e--;)if(t[e].getAttribute(&quot;cf-hash&quot;))return t[e]}();if(t&amp;&amp;t.previousSibling){var e,r,n,i,c=t.previousSibling,a=c.getAttribute(&quot;data-cfemail&quot;);if(a){for(e=&quot;&quot;,r=parseInt(a.substr(0,2),16),n=2;a.length-n;n+=2)i=parseInt(a.substr(n,2),16)^r,e+=String.fromCharCode(i);e=document.createTextNode(e),c.parentNode.replaceChild(e,c)}}}catch(u){}}();/* ]]&gt; */&lt;/script&gt;\nFormat settings, CABAC : No\nFormat settings, ReFrames : 2 frames\nCodec ID : avc1\nCodec ID/Info : Advanced Video Coding\nDuration : 24mn 32s\nBit rate : 1 200 Kbps\nWidth : 768 pixels\nHeight : 432 pixels\nDisplay aspect ratio : 16:9\nFrame rate mode : Constant\nFrame rate : 29.970 fps\nColor space : YUV\nChroma subsampling : 4:2:0\nBit depth : 8 bits\nScan type : Progressive\nBits/(Pixel*Frame) : 0.121\nStream size : 210 MiB (89%)\nLanguage : English\nEncoded date : UTC 2010-06-08 11:41:57\nTagged date : UTC 2010-06-08 11:41:57\n\nAudio\nID : 2\nFormat : AAC\nFormat/Info : Advanced Audio Codec\nFormat profile : LC\nCodec ID : 40\nDuration : 24mn 32s\nSource duration : 24mn 32s\nBit rate mode : Constant\nBit rate : 66.2 Kbps\nChannel count : 2 channels\nChannel positions : Front: L R\nSampling rate : 44.1 KHz\nCompression mode : Lossy\nStream size : 11.9 MiB (5%)\nSource stream size : 11.9 MiB (5%)\nLanguage : English\nEncoded date : UTC 2010-06-08 11:41:57\nTagged date : UTC 2010-06-08 11:41:57","torrent":{"xt":"urn:btih:288491e3ef707763be03bba91e572719a93d389b","amp;dn":"Melanie+Rios+-+Housewife+1+on+1","amp;tr":["udp%3A%2F%2Ftracker.openbittorrent.com%3A80","udp%3A%2F%2Fopen.demonii.com%3A1337","udp%3A%2F%2Ftracker.coppersurfer.tk%3A6969","udp%3A%2F%2Fexodus.desync.com%3A6969"],"infoHash":"288491e3ef707763be03bba91e572719a93d389b","infoHashBuffer":{"type":"Buffer","data":[40,132,145,227,239,112,119,99,190,3,187,169,30,87,39,25,169,61,56,155]},"announce":[],"urlList":[]}}